<svg width="474" height="762" viewBox="0 0 474 762" fill="none" xmlns="http://www.w3.org/2000/svg">
<path d="M300.952 758.2C300.952 758.2 454.082 725.769 460.389 639.126C466.696 552.482 228.791 621.939 324.032 441.126C419.272 260.312 505.349 255.837 460.389 143.126C415.43 30.4152 294.703 -28.7533 154.452 16.0003C14.201 60.754 0.99881 348.126 0.99881 348.126" stroke="#D0D5F6" stroke-width="2"/>
<path d="M258.963 758.2C258.963 758.2 379.087 729.718 384.035 653.625C388.982 577.532 202.355 638.531 277.068 479.735C351.78 320.938 419.303 317.007 384.035 218.021C348.766 119.035 254.06 67.0707 144.04 106.375C34.0188 145.679 23.6622 398.059 23.6622 398.059" stroke="#D0D5F6" stroke-width="2"/>
<path d="M222.727 760.2C222.727 760.2 313.632 735.359 317.376 668.992C321.12 602.625 179.89 655.827 236.429 517.328C292.968 378.829 344.066 375.4 317.376 289.066C290.686 202.732 219.018 157.411 135.759 191.691C52.4996 225.971 44.6622 446.092 44.6622 446.092" stroke="#D0D5F6" stroke-width="2"/>
</svg>
