<svg width="474" height="762" viewBox="0 0 474 762" fill="none" xmlns="http://www.w3.org/2000/svg">
<path d="M172.711 2.96417C172.711 2.96417 19.5798 35.3945 13.273 122.038C6.96627 208.682 244.871 139.225 149.631 320.038C54.39 500.852 -31.6865 505.327 13.273 618.038C58.2326 730.749 178.96 789.917 319.211 745.164C459.461 700.41 472.663 413.038 472.663 413.038" stroke="#D0D5F6" stroke-width="2"/>
<path d="M214.7 2.96417C214.7 2.96417 94.5751 31.4456 89.6277 107.539C84.6803 183.632 271.307 122.633 196.595 281.429C121.882 440.226 54.3588 444.157 89.6277 543.143C124.897 642.13 219.602 694.093 329.623 654.789C439.644 615.485 450 363.105 450 363.105" stroke="#D0D5F6" stroke-width="2"/>
<path d="M250.935 0.964172C250.935 0.964172 160.03 25.8051 156.286 92.1722C152.542 158.539 293.773 105.337 237.234 243.836C180.695 382.335 129.596 385.764 156.286 472.098C182.976 558.432 254.645 603.753 337.904 569.473C421.163 535.193 429 315.072 429 315.072" stroke="#D0D5F6" stroke-width="2"/>
</svg>
